<svg width="244" height="48" viewBox="0 0 244 48" fill="none" xmlns="http://www.w3.org/2000/svg">
<g clip-path="url(#clip0_3620_3590)">
<path d="M36.9499 38.4579C36.0833 39.9461 34.9967 41.2947 33.7269 42.4579C32.3855 43.6856 30.8617 44.6976 29.2099 45.4579C27.8723 46.0979 26.4498 46.5428 24.9859 46.7789C23.9421 46.9673 22.8844 47.0676 21.8239 47.0789C18.0339 47.0431 14.3573 45.7824 11.3429 43.4849C7.73519 40.7702 4.81717 37.2445 2.82487 33.1929C1.72891 30.9451 0.951766 28.5554 0.515868 26.0929C0.294425 24.9436 0.155403 23.78 0.099868 22.6109C0.077868 21.8819 -0.0161304 21.1529 -0.000130428 20.4259C0.0491489 18.5268 0.274444 16.6364 0.672866 14.7789C1.16238 12.4168 1.9676 10.1313 3.06686 7.98393C3.68786 6.78893 4.44087 5.6619 5.14387 4.5109C5.37143 4.1562 5.69982 3.87763 6.08687 3.71092C7.69291 2.91617 9.35027 2.22964 11.0479 1.65592C12.9989 1.01873 14.9999 0.546084 17.0299 0.242928C18.6076 0.0182633 20.2032 -0.0550949 21.7949 0.0239035C22.7839 0.0689035 23.7669 0.237905 24.7509 0.368905C27.5987 0.791497 30.3508 1.70865 32.8829 3.07893C34.984 4.17651 36.9605 5.49782 38.7779 7.01991C40.3958 8.3323 41.8487 9.83592 43.1049 11.4979C44.3382 13.1536 45.3067 14.9908 45.9759 16.9439C46.4705 18.3161 46.793 19.7443 46.9359 21.1959C47.0195 22.234 46.9953 23.2779 46.8639 24.3109C46.6037 26.3321 45.9993 28.2938 45.0769 30.1109C43.979 32.3191 42.4685 34.2968 40.6269 35.9369C40.0773 36.4178 39.4985 36.8643 38.8939 37.2739C38.2949 37.6779 37.6539 38.0309 36.9499 38.4579ZM37.0699 34.0579C37.3128 33.9231 37.5484 33.7755 37.7759 33.6159C38.8128 32.7818 39.718 31.796 40.4609 30.6919C42.1408 28.2229 43.0142 25.2938 42.9609 22.3079C42.9348 21.603 42.8555 20.901 42.7239 20.2079C42.4952 18.673 41.9577 17.2003 41.1439 15.8789C40.7109 15.1839 40.2579 14.5009 39.7809 13.8359C38.6355 12.1994 37.2704 10.7282 35.7239 9.46391C33.179 7.38408 30.2322 5.8521 27.0679 4.96391C25.4958 4.51462 23.8797 4.237 22.2479 4.1359C20.1915 4.01414 18.128 4.13498 16.0999 4.49592C13.3724 5.06769 10.7284 5.98263 8.23086 7.21891C8.07386 7.51891 7.94387 7.82793 7.76387 8.10493C6.79145 9.61274 5.99333 11.2261 5.38486 12.9139C4.68417 14.8239 4.26447 16.8254 4.13887 18.8559C4.01425 20.581 4.04303 22.3139 4.22487 24.0339C4.35768 25.4416 4.66539 26.8273 5.14087 28.1589C5.18287 28.2699 5.24086 28.3749 5.32886 28.5589C5.47322 28.2797 5.55609 27.9728 5.57187 27.6589C5.65387 26.8029 5.71186 25.9409 5.85886 25.0949C6.12229 23.5052 6.54819 21.9467 7.12987 20.4439C7.70787 18.9849 8.32386 17.5439 8.91286 16.0859C9.5679 14.5798 9.87813 12.9463 9.82087 11.3049C9.77887 10.5589 9.62086 9.81992 9.51286 9.07792C9.48486 8.88592 9.45187 8.69393 9.42387 8.51893C10.1299 8.19193 10.7829 7.87392 11.4479 7.58592C12.5341 7.08607 13.6979 6.77593 14.8889 6.66892C16.2385 6.58216 17.5931 6.7214 18.8969 7.08091C20.07 7.33761 21.1666 7.86588 22.0985 8.62327C23.0304 9.38066 23.7717 10.346 24.2629 11.4419C24.5664 12.1301 24.9076 12.8012 25.2849 13.4519C25.8608 14.5329 26.6949 15.4548 27.7129 16.1359C27.8834 16.2633 28.0424 16.4055 28.1879 16.5609C27.1479 17.3939 24.1819 18.0279 23.3069 17.5469C23.8139 17.0739 24.6579 17.1239 25.0929 16.4229C24.8639 16.1899 24.6729 15.9799 24.4649 15.7889C23.7993 15.1978 23.2739 14.4657 22.9269 13.6459C22.8089 13.3599 22.7059 13.0679 22.5919 12.7799C22.2182 11.7738 21.5257 10.9176 20.6199 10.3419C19.864 9.83556 19.0153 9.48383 18.1228 9.30705C17.2304 9.13027 16.3117 9.13194 15.4199 9.31193C14.4269 9.54928 13.4534 9.86185 12.5079 10.2469C12.3415 10.6117 12.2997 11.021 12.3889 11.4119C12.5019 12.2443 12.4985 13.0884 12.3789 13.9199C12.2326 15.0604 11.9266 16.1747 11.4699 17.2299C11.0479 18.2039 10.6019 19.1679 10.2119 20.1549C9.41564 22.1484 8.9365 24.2542 8.79187 26.3959C8.6567 28.1203 8.72888 29.8547 9.00687 31.5619C9.21456 32.8697 9.52758 34.1585 9.94286 35.4159C10.4375 36.9659 11.3541 38.3476 12.5899 39.4059C13.5189 40.1933 14.5238 40.8863 15.5899 41.4749C17.4405 42.4845 19.501 43.0488 21.6079 43.1229C22.8462 43.1399 24.0821 43.0056 25.2879 42.7229C27.0723 42.3578 28.7553 41.607 30.2189 40.5229C30.5609 40.2689 30.8879 39.9949 31.2699 39.6919C31.1678 39.6365 31.0606 39.5909 30.9499 39.5559C30.1002 39.409 29.2681 39.1744 28.4669 38.8559C26.9324 38.2702 25.5151 37.4148 24.2819 36.3299C22.518 34.7958 21.1544 32.8552 20.3089 30.6759C19.696 29.1338 19.3491 27.499 19.2829 25.8409C19.2352 24.6238 19.3315 23.4054 19.5699 22.2109C19.6796 21.4621 19.9369 20.7425 20.3269 20.0939C20.6479 20.1439 20.9539 20.1809 21.2559 20.2389C23.2104 20.6149 25.112 21.227 26.9189 22.0619C29.1748 23.1124 31.1818 24.6302 32.8069 26.5149C33.924 27.8067 34.8584 29.2458 35.5839 30.7919C35.9919 31.6499 36.3209 32.5439 36.6969 33.4179C36.81 33.6376 36.9345 33.8512 37.0699 34.0579ZM22.3829 23.4439C22.3234 23.5574 22.2748 23.6763 22.2379 23.7989C21.9628 25.3953 22.0607 27.0336 22.5239 28.5859C22.902 29.8391 23.5 31.0151 24.2899 32.0589C24.971 33.0437 25.8048 33.9136 26.7599 34.6359C28.5047 35.9263 30.6625 36.5312 32.8239 36.3359C33.2806 36.3405 33.7276 36.2039 34.1039 35.9449C34.0892 35.5286 34.0447 35.1139 33.9709 34.7039C33.6439 33.4171 33.162 32.1747 32.5359 31.0039C31.5336 29.0931 30.1188 27.4292 28.3939 26.1329C27.0355 25.1349 25.5483 24.3252 23.9729 23.7259C23.4702 23.5156 22.9272 23.4193 22.3829 23.4439Z" fill="#EF5350"/>
<path d="M19.9824 12.8398C20.4193 12.8398 20.7734 12.4857 20.7734 12.0488C20.7734 11.612 20.4193 11.2578 19.9824 11.2578C19.5455 11.2578 19.1914 11.612 19.1914 12.0488C19.1914 12.4857 19.5455 12.8398 19.9824 12.8398Z" fill="#EF5350"/>
<path d="M76.2411 14.9623L72.8101 18.3553C71.8608 17.2758 70.693 16.4104 69.3839 15.8165C68.0749 15.2226 66.6546 14.9136 65.2171 14.9103C64.0474 14.8794 62.8836 15.0855 61.7956 15.5159C60.7077 15.9464 59.718 16.5925 58.8861 17.4153C58.0628 18.1989 57.4109 19.1448 56.9718 20.1932C56.5328 21.2417 56.3159 22.3698 56.3351 23.5063C56.3148 24.68 56.5398 25.8451 56.9958 26.9268C57.4518 28.0086 58.1287 28.9832 58.9831 29.7882C59.8441 30.6331 60.866 31.2964 61.9883 31.7387C63.1105 32.1811 64.3102 32.3934 65.5161 32.3633C67.0068 32.4128 68.4818 32.0454 69.7751 31.3023C71.0171 30.4961 71.9917 29.3392 72.5751 27.9782H65.1621V23.4002H78.0391L78.0741 24.4793C78.0738 26.7196 77.473 28.9189 76.3341 30.8482C75.2715 32.7565 73.7146 34.3433 71.8271 35.4422C69.841 36.5333 67.6015 37.0795 65.3361 37.0252C62.8573 37.0689 60.4092 36.4728 58.2281 35.2943C56.151 34.1455 54.4386 32.4362 53.2861 30.3612C52.0824 28.2588 51.4553 25.8758 51.4681 23.4533C51.422 20.1867 52.6228 17.0254 54.8261 14.6133C56.118 13.1492 57.7178 11.989 59.5108 11.2159C61.3038 10.4427 63.2456 10.0757 65.1971 10.1412C67.3416 10.1247 69.4671 10.5449 71.4441 11.3763C73.2778 12.2204 74.9125 13.4424 76.2411 14.9623Z" fill="#EF5350"/>
<path d="M78.7667 17.4504H82.8387V19.8344C83.2151 18.9723 83.8233 18.2315 84.5957 17.6944C85.3036 17.2143 86.1403 16.9594 86.9957 16.9634C87.6679 16.9776 88.3281 17.1441 88.9267 17.4504L87.4477 21.5394C87.0261 21.2998 86.5564 21.157 86.0727 21.1214C85.668 21.1522 85.2799 21.2956 84.9525 21.5354C84.625 21.7752 84.3712 22.1019 84.2197 22.4784C83.715 23.3831 83.4627 25.1581 83.4627 27.8034L83.4797 28.7254V36.3814H78.7637L78.7667 17.4504Z" fill="#EF5350"/>
<path d="M102.11 17.4504H106.861V36.3824H102.11V34.3824C101.304 35.1823 100.358 35.8279 99.3196 36.2874C98.3575 36.6818 97.3263 36.88 96.2866 36.8704C95.0876 36.875 93.9014 36.6235 92.8074 36.1329C91.7134 35.6422 90.7367 34.9238 89.9426 34.0254C88.1516 32.1132 87.1893 29.5704 87.2656 26.9514C87.1622 24.3102 88.0911 21.7325 89.8556 19.7644C90.6408 18.872 91.6095 18.1599 92.6955 17.6766C93.7815 17.1933 94.959 16.9504 96.1476 16.9644C97.2472 16.9569 98.3365 17.1761 99.3476 17.6085C100.386 18.0664 101.325 18.7223 102.112 19.5395L102.11 17.4504ZM97.1156 21.3505C96.4299 21.3335 95.7485 21.4637 95.1173 21.7322C94.4861 22.0008 93.9198 22.4015 93.4566 22.9074C92.4663 23.996 91.943 25.4299 91.9996 26.9004C91.9446 28.3887 92.4773 29.8387 93.4826 30.9374C93.9426 31.447 94.5065 31.852 95.1363 32.1251C95.7662 32.3982 96.4472 32.533 97.1336 32.5204C97.8272 32.5389 98.5168 32.4096 99.1566 32.1411C99.7964 31.8727 100.372 31.4712 100.845 30.9634C101.855 29.851 102.385 28.384 102.319 26.8824C102.35 26.1513 102.236 25.4213 101.983 24.7347C101.73 24.0481 101.343 23.4185 100.845 22.8824C100.365 22.3796 99.7856 21.9833 99.1432 21.719C98.5008 21.4547 97.81 21.3285 97.1156 21.3484V21.3505Z" fill="#EF5350"/>
<path d="M122.651 17.4504H127.401V36.3824H122.651V34.3824C121.845 35.1823 120.899 35.8279 119.861 36.2874C118.899 36.6818 117.867 36.88 116.828 36.8704C115.629 36.875 114.442 36.6235 113.348 36.1329C112.254 35.6422 111.278 34.9238 110.484 34.0254C108.692 32.1133 107.73 29.5704 107.807 26.9514C107.703 24.3102 108.632 21.7325 110.397 19.7644C111.182 18.872 112.151 18.1599 113.237 17.6766C114.322 17.1933 115.5 16.9504 116.689 16.9644C117.788 16.9569 118.878 17.1761 119.889 17.6085C120.927 18.0664 121.866 18.7223 122.653 19.5395L122.651 17.4504ZM117.657 21.3505C116.971 21.3335 116.289 21.4637 115.658 21.7322C115.027 22.0008 114.461 22.4015 113.998 22.9074C113.007 23.9959 112.484 25.4299 112.541 26.9004C112.486 28.3887 113.018 29.8387 114.024 30.9374C114.484 31.447 115.048 31.852 115.677 32.1251C116.307 32.3982 116.988 32.533 117.675 32.5204C118.368 32.5389 119.058 32.4096 119.698 32.1411C120.337 31.8727 120.913 31.4712 121.386 30.9634C122.396 29.851 122.926 28.384 122.86 26.8824C122.891 26.1513 122.777 25.4213 122.524 24.7347C122.271 24.0481 121.884 23.4185 121.386 22.8824C120.906 22.3796 120.327 21.9833 119.684 21.719C119.042 21.4547 118.351 21.3285 117.657 21.3484V21.3505Z" fill="#EF5350"/>
<path d="M128.775 17.45H133.525V19.39C134.398 18.6118 135.385 17.9727 136.452 17.495C137.304 17.1443 138.216 16.9632 139.137 16.9621C140.026 16.9456 140.909 17.1116 141.731 17.4497C142.553 17.7879 143.297 18.291 143.916 18.928C144.505 19.6014 144.954 20.385 145.238 21.2334C145.521 22.0817 145.633 22.978 145.567 23.87V36.381H140.867V28.09C140.929 26.5836 140.829 25.0749 140.567 23.59C140.412 22.9231 140.04 22.3268 139.508 21.895C138.97 21.4957 138.312 21.2905 137.642 21.313C136.723 21.2972 135.834 21.6439 135.168 22.278C134.434 23.0038 133.936 23.9333 133.736 24.946C133.553 26.2176 133.483 27.5031 133.528 28.787V36.387H128.778L128.775 17.45Z" fill="#EF5350"/>
<path d="M161.281 17.4504H166.031V36.3824H161.281V34.3824C160.475 35.1823 159.53 35.8279 158.491 36.2874C157.529 36.6818 156.498 36.88 155.458 36.8704C154.259 36.8749 153.073 36.6234 151.979 36.1328C150.885 35.6422 149.909 34.9237 149.114 34.0254C147.323 32.1132 146.361 29.5704 146.437 26.9514C146.334 24.3103 147.263 21.7326 149.027 19.7644C149.813 18.872 150.781 18.1599 151.867 17.6766C152.953 17.1933 154.131 16.9504 155.319 16.9644C156.419 16.9569 157.508 17.1761 158.519 17.6085C159.558 18.0664 160.496 18.7223 161.283 19.5395L161.281 17.4504ZM156.287 21.3505C155.602 21.3333 154.92 21.4634 154.289 21.732C153.657 22.0006 153.091 22.4014 152.627 22.9074C151.637 23.996 151.114 25.4299 151.17 26.9004C151.115 28.3887 151.648 29.8387 152.653 30.9374C153.113 31.447 153.677 31.852 154.307 32.1251C154.937 32.3982 155.618 32.533 156.304 32.5204C156.998 32.5389 157.688 32.4096 158.327 32.1411C158.967 31.8727 159.543 31.4712 160.015 30.9634C161.026 29.851 161.556 28.384 161.489 26.8824C161.521 26.1513 161.406 25.4213 161.153 24.7347C160.9 24.0481 160.514 23.4185 160.015 22.8824C159.536 22.3796 158.956 21.9833 158.314 21.719C157.672 21.4547 156.981 21.3285 156.286 21.3484L156.287 21.3505Z" fill="#EF5350"/>
<path d="M170.577 31.4232C170.936 31.4175 171.292 31.4847 171.624 31.6209C171.956 31.757 172.257 31.9592 172.508 32.2152C172.767 32.4633 172.972 32.7622 173.109 33.0931C173.247 33.424 173.315 33.7798 173.308 34.1382C173.308 34.8628 173.02 35.5577 172.508 36.07C171.996 36.5824 171.301 36.8702 170.576 36.8702C169.852 36.8702 169.157 36.5824 168.644 36.07C168.132 35.5577 167.844 34.8628 167.844 34.1382C167.838 33.7798 167.906 33.424 168.043 33.0931C168.181 32.7622 168.386 32.4633 168.644 32.2152C168.896 31.9589 169.197 31.7565 169.529 31.6204C169.862 31.4842 170.218 31.4172 170.577 31.4232Z" fill="#727578"/>
<path d="M193.636 21.2784L189.682 23.4535C189.067 22.7692 188.318 22.2184 187.482 21.8355C186.669 21.5182 185.802 21.3646 184.93 21.3835C184.142 21.3491 183.354 21.472 182.614 21.7449C181.874 22.0179 181.195 22.4355 180.618 22.9735C180.074 23.4998 179.647 24.1343 179.363 24.836C179.08 25.5377 178.946 26.2911 178.972 27.0475C178.946 27.7791 179.073 28.5082 179.346 29.1876C179.619 29.8669 180.032 30.4814 180.557 30.9915C181.115 31.5096 181.771 31.9116 182.485 32.174C183.2 32.4365 183.96 32.5543 184.721 32.5204C185.661 32.5688 186.599 32.3973 187.461 32.0198C188.322 31.6422 189.084 31.069 189.686 30.3455L193.432 32.9105C192.427 34.0648 191.201 35.0075 189.828 35.6837C188.455 36.36 186.96 36.7561 185.432 36.8492C183.904 36.9423 182.373 36.7304 180.928 36.2258C179.483 35.7213 178.152 34.9342 177.014 33.9105C175.932 32.8196 175.12 31.4904 174.644 30.0295C174.168 28.5685 174.041 27.0164 174.273 25.4974C174.504 23.9784 175.089 22.5348 175.979 21.2823C176.869 20.0297 178.04 19.003 179.398 18.2845C181.094 17.3892 182.988 16.9343 184.906 16.9615C186.659 16.9327 188.393 17.3171 189.97 18.0834C191.446 18.8166 192.708 19.9168 193.636 21.2784Z" fill="#727578"/>
<path d="M203.958 16.963C205.726 16.9582 207.463 17.4204 208.995 18.303C210.519 19.1618 211.785 20.4117 212.664 21.9235C213.543 23.4353 214.003 25.1543 213.995 26.9031C214.003 28.6617 213.544 30.3909 212.665 31.9141C211.809 33.4368 210.555 34.6974 209.037 35.5601C207.495 36.4387 205.747 36.8921 203.972 36.8741C202.677 36.8935 201.391 36.6461 200.195 36.1472C198.999 35.6483 197.918 34.9086 197.021 33.9741C196.076 33.0133 195.334 31.8721 194.84 30.6185C194.346 29.3649 194.109 28.0247 194.144 26.6777C194.179 25.3307 194.485 24.0045 195.043 22.7782C195.602 21.5519 196.401 20.4506 197.394 19.54C199.171 17.8715 201.52 16.949 203.958 16.963ZM204.035 21.4351C203.347 21.4178 202.663 21.546 202.028 21.8114C201.393 22.0768 200.821 22.4733 200.349 22.9751C199.856 23.5021 199.472 24.1218 199.219 24.7982C198.966 25.4746 198.85 26.1944 198.876 26.9161C198.813 28.3894 199.336 29.828 200.331 30.9161C200.803 31.4172 201.375 31.8128 202.01 32.0767C202.646 32.3406 203.33 32.4668 204.018 32.4471C204.711 32.4647 205.4 32.3359 206.039 32.069C206.679 31.802 207.255 31.403 207.73 30.898C208.682 29.7947 209.207 28.3876 209.212 26.9309C209.217 25.4741 208.701 24.0636 207.756 22.954C207.278 22.4534 206.699 22.0594 206.058 21.7976C205.417 21.5359 204.728 21.4123 204.035 21.4351Z" fill="#727578"/>
<path d="M214.992 17.4504H219.742V19.6234C220.495 18.7747 221.418 18.0933 222.45 17.6234C223.474 17.1761 224.581 16.9508 225.698 16.9624C226.825 16.948 227.934 17.2494 228.898 17.8324C229.885 18.4502 230.681 19.3298 231.198 20.3734C231.899 19.309 232.853 18.4357 233.975 17.8324C235.085 17.249 236.322 16.9501 237.575 16.9624C238.824 16.9364 240.055 17.2621 241.127 17.9024C242.097 18.4724 242.866 19.3296 243.327 20.3554C243.863 21.9389 244.091 23.6103 243.998 25.2794V36.3794H239.213V26.7744C239.213 24.6284 238.947 23.1754 238.413 22.4154C238.143 22.0374 237.78 21.7346 237.361 21.5351C236.941 21.3357 236.477 21.2463 236.013 21.2754C235.229 21.2675 234.463 21.513 233.829 21.9754C233.17 22.4595 232.67 23.1289 232.393 23.8984C232.018 25.177 231.859 26.5094 231.923 27.8404V36.3844H227.138V27.2144C227.191 25.9761 227.064 24.7367 226.763 23.5344C226.575 22.8641 226.182 22.2696 225.638 21.8344C225.111 21.4546 224.474 21.2588 223.824 21.2774C223.049 21.2711 222.293 21.5168 221.67 21.9774C221.002 22.4772 220.498 23.1648 220.222 23.9524C219.842 25.2499 219.679 26.6016 219.742 27.9524V36.3744H214.992V17.4504Z" fill="#727578"/>
</g>
<defs>
<clipPath id="clip0_3620_3590">
<rect width="244" height="47.083" fill="white"/>
</clipPath>
</defs>
</svg>
